<svg xmlns="http://www.w3.org/2000/svg" fill="none" viewBox="0 0 197 25"><g fill="#CE0A17" clip-path="url(#a)"><path fill-rule="evenodd" d="M0 20.875h3.029V3.39H0V.001h13.187c2.401 0 12.338.37 12.338 12.095 0 8.088-5.098 12.17-12.929 12.17H0v-3.391Zm8.325 0h3.902c5.245 0 7.905-3.473 7.905-8.742 0-5.231-2.512-8.742-7.905-8.742H8.325v17.484Z" clip-rule="evenodd"/><path d="M39.294 5.537c-2.971-.001-5.16 1.892-5.817 3.841v-3.18h-8.089l.744 3.017h2.72V21.25h-3.824v3.016h12.08V21.25h-3.32v-6.112c-.005-2.12.223-3.518 1.464-4.597 1.298-1.15 3.303-1.222 5.36-.812l.164-3.997a5.304 5.304 0 0 0-1.482-.194ZM70.688 13.605c4.101.783 6.023 2.564 6.032 5.41-.009 3.497-2.661 5.754-6.85 5.754-2.457 0-3.899-.538-4.84-1.29-.055-.045-.113-.09-.172-.136-.306-.24-.633-.497-.83-.764v1.686h-3.404v-6.04h3.83c.047.488.166.927.346 1.317.61 1.328 1.948 2.067 3.796 2.054 1.03 0 1.909-.217 2.546-.608.635-.388 1.032-.973 1.03-1.663 0-.69-.383-1.326-.97-1.705-.506-.295-.993-.41-2.73-.722l-2.354-.427c-3.791-.714-5.362-2.271-5.38-5.214.005-3.383 2.709-5.71 6.7-5.72 3.365.016 4.875 1.141 5.8 2.418V6.199h3.135v5.81h-3.736v-.094a2.858 2.858 0 0 0-1.107-2.303c-.7-.554-1.687-.862-2.857-.862-1.007 0-1.84.196-2.437.574-.597.376-.95.959-.947 1.66-.007.6.218 1.088.736 1.424.514.34 1.291.571 2.456.806l2.207.39Z"/><path fill-rule="evenodd" d="M58.98 15.714c0-3.446-.776-5.985-2.303-7.66-1.527-1.674-3.823-2.515-6.94-2.517-5.869.016-9.385 3.62-9.401 9.637.015 5.97 3.646 9.58 9.592 9.596 2.403-.001 3.97-.641 5.144-1.654v1.15h3.095v-6.042h-3.83c0 2.279-2.412 3.378-4.33 3.372-2.903.016-4.675-1.853-4.85-5.054l-.012-.19H58.98v-.638Zm-13.725-2.106.017-.196c.257-3.004 1.907-4.715 4.542-4.7 2.67-.018 4.25 1.704 4.347 4.71l.008.186h-8.914Z" clip-rule="evenodd"/><path d="M128.457 11.76c-.018-3.958-2.291-6.204-6.274-6.223-3.816.007-5.761 2.328-6.346 3.907-.767-2.609-2.586-3.907-5.625-3.907-3.92 0-5.937 2.375-6.666 3.698V6.198H90.799v1.757c-.924-1.277-2.435-2.402-5.8-2.418-3.99.01-6.694 2.337-6.699 5.72.017 2.943 1.588 4.5 5.38 5.214l2.354.427c1.737.313 2.223.427 2.73.722.587.38.97 1.015.97 1.705.001.69-.395 1.276-1.03 1.663-.637.39-1.517.607-2.546.608-2.392.017-3.935-1.22-4.143-3.372h-3.83v6.041h3.404V22.58c.875 1.185 2.482 2.19 5.842 2.19 4.19 0 6.842-2.257 6.85-5.754-.008-2.846-1.93-4.627-6.032-5.41l-2.206-.391c-1.165-.235-1.943-.466-2.457-.806-.518-.337-.743-.825-.736-1.423-.003-.702.35-1.285.948-1.66.596-.38 1.43-.574 2.437-.575 1.17 0 2.156.308 2.857.862a2.858 2.858 0 0 1 1.106 2.303v.094h3.737V9.215h5.062v12.034h-2.74v3.017h10.109v-3.017h-2.436v-7.007c.001-1.639.392-3.013 1.102-3.989.708-.976 1.746-1.543 2.98-1.541.99-.002 1.816.381 2.375 1.089.559.707.854 1.717.855 2.967v8.481h-2.435v3.017h9.801v-3.017h-2.433v-7.162c.001-1.673.351-3.01 1.029-3.94.677-.933 1.691-1.438 2.937-1.435 1.063-.003 1.93.39 2.508 1.139.58.747.873 1.824.874 3.188v8.21h-2.473v3.017h9.635v-3.017h-2.228v-9.488Z"/><path fill-rule="evenodd" d="M194.111 11.41v9.839h2.466v3.016h-9.869V21.25h2.473v-8.403c-.001-1.361-.275-2.396-.875-3.099-.603-.703-1.516-1.037-2.703-1.035-1.262-.002-2.318.487-3.041 1.368-.724.88-1.117 2.134-1.117 3.657v7.512h2.47v3.016h-20.006V21.25h2.473v-8.403c-.001-1.361-.275-2.396-.875-3.099-.602-.703-1.516-1.037-2.703-1.035-1.262-.002-2.317.487-3.041 1.368-.724.88-1.117 2.134-1.117 3.657v7.512h2.47v3.016h-16.868v-2.814c-1.512 1.819-3.66 3.358-6.857 3.358-4.195 0-6.647-2.095-6.659-5.64.004-2.301 1.22-4.12 3.446-5.07 1.346-.566 3.485-.88 6.475-.88h.036c.917 0 1.338 0 3.026.078l.191.01-.004-.192c-.037-1.933-.118-2.415-.531-3.042-.632-.888-1.748-1.28-3.355-1.28-3.357 0-3.913 2.608-3.946 2.95h-4.013V5.702h3.062v.988c1.198-.623 2.905-1.07 4.741-1.072 2.993-.001 5.132.561 6.51 1.709 1.377 1.146 2.038 2.812 2.04 5.284v8.638h5.302V9.215h-4.152V6.198h8.7v2.85c1.109-1.661 3.17-3.51 6.707-3.51 4.106 0 6.326 2.077 6.345 5.873v9.838h5.199V9.215h-4.152V6.198h8.7v2.85c1.109-1.661 3.17-3.51 6.707-3.51 4.106 0 6.326 2.077 6.345 5.873Zm-51.666 8.854c.86-.941 1.338-2.358 1.535-4.298l.018-.182-.179-.015c-.44-.038-1.091-.038-1.669-.038h-.01c-2.052 0-3.307.118-4.376.437-1.44.433-2.333 1.442-2.328 2.77-.002.821.323 1.512.905 1.98.582.468 1.405.717 2.401.717h.01c1.606 0 2.834-.431 3.693-1.371Z" clip-rule="evenodd"/></g><defs><clipPath id="a"><path fill="#fff" d="M0 0H197V25H0z"/></clipPath></defs></svg>